<?xml version="1.0" encoding="UTF-8" standalone="no"?>
<!-- Created with Inkscape (http://www.inkscape.org/) -->
<svg xmlns:i="http://ns.adobe.com/AdobeIllustrator/10.0/" xmlns:dc="http://purl.org/dc/elements/1.1/" xmlns:cc="http://creativecommons.org/ns#" xmlns:rdf="http://www.w3.org/1999/02/22-rdf-syntax-ns#" xmlns:svg="http://www.w3.org/2000/svg" xmlns="http://www.w3.org/2000/svg" xmlns:xlink="http://www.w3.org/1999/xlink" xmlns:sodipodi="http://sodipodi.sourceforge.net/DTD/sodipodi-0.dtd" xmlns:inkscape="http://www.inkscape.org/namespaces/inkscape" version="1.0" width="301.15000pt" height="285.01000pt" id="svg24159" sodipodi:version="0.32" inkscape:version="0.46" sodipodi:docname="ubuntuBiohazardplain.svg" sodipodi:docbase="/home/marian/Desktop/Bilder" inkscape:output_extension="org.inkscape.output.svg.inkscape">
  <metadata id="metadata7">
    <rdf:RDF>
      <cc:Work rdf:about="">
        <dc:format>image/svg+xml</dc:format>
        <dc:type rdf:resource="http://purl.org/dc/dcmitype/StillImage"/>
      </cc:Work>
    </rdf:RDF>
  </metadata>
  <defs id="defs5">
    <linearGradient id="linearGradient5334">
      <stop id="stop5336" offset="0" style="stop-color: rgb(0, 0, 0); stop-opacity: 1;"/>
      <stop id="stop5338" offset="1" style="stop-color: rgb(255, 0, 0); stop-opacity: 1;"/>
    </linearGradient>
    <linearGradient id="linearGradient5328">
      <stop id="stop5330" offset="0" style="stop-color: rgb(255, 99, 9); stop-opacity: 1;"/>
      <stop id="stop5332" offset="1" style="stop-color: rgb(255, 0, 0); stop-opacity: 0;"/>
    </linearGradient>
    <linearGradient id="linearGradient5320">
      <stop style="stop-color: rgb(255, 99, 9); stop-opacity: 1;" offset="0" id="stop5322"/>
      <stop style="stop-color: rgb(255, 0, 0); stop-opacity: 0;" offset="1" id="stop5324"/>
    </linearGradient>
    <linearGradient id="linearGradient5312">
      <stop style="stop-color: rgb(255, 99, 9); stop-opacity: 1;" offset="0" id="stop5314"/>
      <stop style="stop-color: rgb(255, 0, 0); stop-opacity: 0;" offset="1" id="stop5316"/>
    </linearGradient>
    <linearGradient id="linearGradient5304">
      <stop style="stop-color: rgb(255, 99, 9); stop-opacity: 1;" offset="0" id="stop5306"/>
      <stop style="stop-color: rgb(255, 99, 9); stop-opacity: 0;" offset="1" id="stop5308"/>
    </linearGradient>
    <linearGradient id="linearGradient3858">
      <stop style="stop-color: rgb(255, 0, 0); stop-opacity: 1;" offset="0" id="stop3860"/>
      <stop style="stop-color: rgb(0, 0, 0); stop-opacity: 0;" offset="1" id="stop3862"/>
    </linearGradient>
    <inkscape:perspective sodipodi:type="inkscape:persp3d" inkscape:vp_x="0 : 178.13126 : 1" inkscape:vp_y="0 : 1000 : 0" inkscape:vp_z="376.4375 : 178.13126 : 1" inkscape:persp3d-origin="188.21875 : 118.75417 : 1" id="perspective2452"/>
    <linearGradient inkscape:collect="always" xlink:href="#linearGradient5334" id="linearGradient5318" x1="340.27557" y1="114.17638" x2="204.97453" y2="189.55135" gradientUnits="userSpaceOnUse"/>
    <linearGradient inkscape:collect="always" xlink:href="#linearGradient5334" id="linearGradient5326" x1="188.25735" y1="382.97565" x2="188.25735" y2="221.03142" gradientUnits="userSpaceOnUse"/>
    <linearGradient inkscape:collect="always" xlink:href="#linearGradient5334" id="linearGradient5340" x1="49.017681" y1="119.49767" x2="166.93111" y2="187.42798" gradientUnits="userSpaceOnUse"/>
  </defs>
  <sodipodi:namedview id="base" pagecolor="#ffffff" bordercolor="#666666" borderopacity="1.0" inkscape:pageopacity="0.0" inkscape:pageshadow="2" inkscape:window-width="1007" inkscape:window-height="808" inkscape:zoom="1.3399673" inkscape:cx="178.17258" inkscape:cy="181.90791" inkscape:window-x="205" inkscape:window-y="40" inkscape:current-layer="svg24159" showgrid="false"/>
  <path style="display: inline; stroke: none; fill-rule: nonzero; fill-opacity: 1; fill: rgb(255, 0, 0);" d="M 185.17957,12.504069 C 185.17904,12.504895 185.18002,12.531962 185.17957,12.532749 C 185.18904,12.530152 185.19916,12.50757 185.20812,12.504069 C 185.20462,12.504069 185.18311,12.503911 185.17957,12.504069 z" id="path3240"/>
  <path style="display: inline; stroke: none; fill-rule: nonzero; fill-opacity: 1; fill: rgb(255, 0, 0);" d="M 183.03226,12.590029 C 183.01209,12.592489 182.99505,12.61572 182.97494,12.618611 C 183.05175,12.61389 183.12722,12.594495 183.20411,12.590029 C 183.18508,12.590227 183.16551,12.589144 183.14676,12.590029 C 183.10503,12.591938 183.07265,12.584954 183.03226,12.590029 z" id="path3238"/>
  <path style="display: inline; stroke: none; fill-rule: nonzero; fill-opacity: 1; fill: rgb(255, 0, 0);" d="M 193.45373,12.647252 C 193.6064,12.658465 193.75944,12.663776 193.9118,12.675893 C 193.7619,12.666785 193.604,12.655671 193.45373,12.647252 z" id="path3236"/>
  <path style="display: inline; stroke: none; fill-rule: nonzero; fill-opacity: 1; fill: url(#linearGradient5318) rgb(0, 0, 0);" d="M 193.9118,12.675893 C 232.46691,15.740284 262.82541,48.062571 262.82541,87.401345 C 262.82541,127.45578 231.3168,160.12453 191.76448,162.15554 L 191.76448,177.50152 C 202.56266,179.2087 210.83247,188.58625 210.83247,199.86195 C 210.83247,202.62166 210.33566,205.26079 209.42956,207.70667 L 223.45854,215.8091 C 245.13892,183.05957 288.87999,172.37344 323.35021,192.2748 C 357.73842,212.12886 370.43585,255.20121 353.09724,290.30555 C 376.89311,243.99007 360.34583,186.58438 314.76111,160.26598 C 303.35575,153.68113 291.20363,149.6695 278.91574,148.01215 C 283.61928,136.54447 286.21647,123.98743 286.21647,110.8211 C 286.21647,58.567688 245.38691,15.791015 193.9118,12.675893 z" id="path3234"/>
  <path style="fill: url(#linearGradient5340) rgb(0, 0, 0); fill-opacity: 1; fill-rule: nonzero; stroke: none; display: inline;" d="M 181.34306,12.733154 C 130.12521,16.116056 89.553733,58.752436 89.553733,110.8211 C 89.553733,123.61258 91.998533,135.83754 96.453683,147.03864 C 84.531443,148.78411 72.712833,152.75594 61.639053,159.14935 C 16.359514,185.29153 -0.22723942,242.09329 22.873472,288.24419 C 6.1945966,253.30798 18.985308,210.81334 53.078548,191.12956 C 87.766683,171.10243 131.80745,182.056 153.34239,215.29373 L 166.88469,207.47762 C 166.0336,205.09841 165.59634,202.53251 165.59634,199.86195 C 165.59634,189.06496 173.1661,180.0345 183.28994,177.78778 L 183.28994,162.12699 C 144.0878,159.72586 112.97353,127.20422 112.97353,87.401345 C 112.97353,48.242558 143.0395,16.048742 181.34306,12.733154 z" id="path3232"/>
  <path style="display: inline; stroke: none; fill-rule: nonzero; fill-opacity: 1; fill: rgb(255, 99, 9);" d="M 185.72353,106.8701 C 165.93698,107.32527 147.69621,114.0613 132.72852,125.02189 C 133.92426,126.79138 135.20905,128.50388 136.56496,130.14672 C 137.92099,131.78955 139.3546,133.36576 140.85957,134.87072 C 142.36452,136.37569 143.94075,137.8094 145.58366,139.16532 C 146.79153,140.16226 148.08565,141.05984 149.36285,141.9711 C 160.41134,134.71695 173.64221,130.46173 187.89949,130.46173 C 202.15662,130.46167 215.35896,134.71695 226.40744,141.9711 C 227.68465,141.05984 228.97871,140.16226 230.18664,139.16532 C 231.82952,137.8094 233.40572,136.37569 234.91063,134.87072 C 236.4157,133.36576 237.84931,131.78955 239.20528,130.14672 C 240.5612,128.50388 241.84593,126.79138 243.04175,125.02189 C 227.53308,113.66515 208.51302,106.8701 187.89949,106.8701 C 187.41629,106.8701 186.92068,106.86266 186.43925,106.8701 C 186.20426,106.87374 185.95814,106.86469 185.72353,106.8701 z" id="path3230"/>
  <path style="display: inline; stroke: none; fill-rule: nonzero; fill-opacity: 1; fill: rgb(255, 181, 21);" d="M 95.537563,189.44044 C 93.456603,208.54965 97.083863,228.42006 107.39057,246.27192 C 117.69734,264.12371 133.09031,277.2278 150.67981,284.98028 C 151.61439,283.05998 152.45451,281.07813 153.1993,279.08241 C 153.94415,277.08673 154.59534,275.06866 155.14612,273.01281 C 155.69706,270.95696 156.1675,268.87203 156.5204,266.77134 C 156.77995,265.22677 156.91389,263.66621 157.06451,262.10453 C 145.25789,256.16334 134.96134,246.82329 127.83274,234.47612 C 120.70411,222.12899 117.76976,208.56229 118.52781,195.36695 C 117.10014,194.71645 115.67195,194.05352 114.20457,193.50594 C 112.20889,192.76124 110.19079,192.10996 108.13494,191.55908 C 106.07909,191.00818 103.99423,190.56634 101.89352,190.21343 C 99.792833,189.86055 97.667863,189.59119 95.537563,189.44044 z" id="path3228"/>
  <path style="display: inline; stroke: none; fill-rule: nonzero; fill-opacity: 1; fill: rgb(201, 0, 22);" d="M 280.89124,190.55697 C 278.76084,190.70788 276.636,190.97714 274.53528,191.33003 C 272.43456,191.68302 270.34961,192.12477 268.29376,192.6757 C 266.23801,193.22661 264.19127,193.87777 262.19552,194.62259 C 260.72817,195.17008 259.32865,195.86168 257.90099,196.51211 C 258.65897,209.70743 255.72463,223.27428 248.59602,235.6214 C 241.46745,247.96842 231.17086,257.2799 219.36439,263.22112 C 219.51486,264.78276 219.64881,266.34337 219.90834,267.88789 C 220.26123,269.98862 220.70304,272.07349 221.25394,274.1294 C 221.80482,276.1852 222.4561,278.232 223.20086,280.22764 C 223.94556,282.22346 224.78583,284.17654 225.72031,286.09691 C 243.30986,278.34439 258.70282,265.26894 269.00954,247.41715 C 279.31642,229.56529 282.97213,209.6662 280.89124,190.55697 z" id="path3226"/>
  <path style="display: inline; stroke: none; fill-rule: nonzero; fill-opacity: 1; fill: url(#linearGradient5326) rgb(0, 0, 0);" d="M 171.17924,214.7211 L 157.55112,222.62316 C 175.07283,257.77365 162.4747,300.98151 128.0046,320.88293 C 93.704113,340.68626 50.187359,330.26503 28.39911,297.89267 C 56.67228,341.45792 114.48916,355.73899 159.98474,329.472 C 171.00564,323.10907 180.30246,314.90628 187.7563,305.5084 C 195.35651,315.38754 204.97555,323.96734 216.44402,330.58865 C 261.99079,356.885 319.87726,342.54593 348.11559,298.86611 C 326.3677,331.37854 282.78762,341.89649 248.4243,322.05678 C 213.73621,302.02954 201.20398,258.40727 219.2212,223.13852 L 205.04916,214.95018 C 200.90743,219.56162 194.89589,222.48001 188.2144,222.48001 C 181.42312,222.48001 175.32632,219.46507 171.17924,214.7211 z" id="path7214"/>
  <circle transform="matrix(1.84875, 0, 0, 1.84875, 147.79, 101.397)" i:knockout="Off" cx="74.547997" cy="84.667" r="9.1239996" id="circle17" sodipodi:cx="74.547997" sodipodi:cy="84.667" sodipodi:rx="9.1239996" sodipodi:ry="9.1239996" style="fill: rgb(255, 181, 21); opacity: 0;"/>
  <circle transform="matrix(2.77312, 0, 0, 2.77312, 80.8145, 23.1089)" i:knockout="Off" cx="74.547997" cy="84.667" r="9.1239996" id="circle3836" sodipodi:cx="74.547997" sodipodi:cy="84.667" sodipodi:rx="9.1239996" sodipodi:ry="9.1239996" style="fill: rgb(255, 255, 255); fill-opacity: 0; stroke: rgb(255, 255, 255); stroke-opacity: 1; stroke-width: 3.63237; stroke-miterlimit: 4; stroke-dasharray: none; opacity: 0;"/>
  <circle transform="matrix(1.84875, 0, 0, 1.84875, 50.3087, -71.1439)" i:knockout="Off" cx="74.547997" cy="84.667" r="9.1239996" id="circle3838" sodipodi:cx="74.547997" sodipodi:cy="84.667" sodipodi:rx="9.1239996" sodipodi:ry="9.1239996" style="fill: rgb(201, 0, 22); fill-opacity: 1; opacity: 0;"/>
  <circle transform="matrix(2.77312, 0, 0, 2.77312, -18.6665, -149.432)" i:knockout="Off" cx="74.547997" cy="84.667" r="9.1239996" id="circle3840" sodipodi:cx="74.547997" sodipodi:cy="84.667" sodipodi:rx="9.1239996" sodipodi:ry="9.1239996" style="fill: rgb(255, 255, 255); fill-opacity: 0; stroke: rgb(255, 255, 255); stroke-width: 3.63237; stroke-miterlimit: 4; stroke-dasharray: none; stroke-opacity: 1; opacity: 0;"/>
  <circle transform="matrix(1.84875, 0, 0, 1.84875, -49.5764, 100.579)" i:knockout="Off" cx="74.547997" cy="84.667" r="9.1239996" id="circle3848" sodipodi:cx="74.547997" sodipodi:cy="84.667" sodipodi:rx="9.1239996" sodipodi:ry="9.1239996" style="fill: rgb(255, 99, 9); fill-opacity: 1; opacity: 0;"/>
  <circle transform="matrix(2.77312, 0, 0, 2.77312, -118.417, 22.2909)" i:knockout="Off" cx="74.547997" cy="84.667" r="9.1239996" id="circle3850" sodipodi:cx="74.547997" sodipodi:cy="84.667" sodipodi:rx="9.1239996" sodipodi:ry="9.1239996" style="fill: rgb(255, 255, 255); fill-opacity: 0; stroke: rgb(255, 255, 255); stroke-width: 3.63237; stroke-miterlimit: 4; stroke-dasharray: none; stroke-opacity: 1; opacity: 0;"/>
</svg>